<?xml version="1.0" encoding="UTF-8" standalone="no"?>
<svg width="115px" height="70px" viewBox="0 0 115 70" version="1.1"
     xmlns="http://www.w3.org/2000/svg" xmlns:xlink="http://www.w3.org/1999/xlink">
    <g id="Page-1" stroke="none" stroke-width="1" fill="none" fill-rule="evenodd">
        <g id="logo-1" transform="translate(-144.000000, -189.000000)">
            <g id="atfg" transform="translate(144.000000, 189.000000)">
                <rect id="Rectangle" fill="#FFF"
                      transform="translate(76.000000, 21.500000) scale(-1, 1) translate(-76.000000, -21.500000) "
                      x="61" y="17" width="30" height="9"></rect>
                <g id="Group-2">
                    <rect id="Rectangle-5" fill="#FFF" x="79" y="17" width="24"
                          height="7" rx="1"></rect>
                    <rect id="Rectangle-5" fill="#FFF"
                          transform="translate(105.000000, 20.500000) scale(-1, 1) translate(-105.000000, -20.500000) "
                          x="96" y="17" width="18" height="7"></rect>
                    <g id="Group">
                        <path d="M35.936,49.2 C35.936,49.7280026 35.7560018,50.1599983 35.396,50.496 C35.0359982,50.8320017 34.5920026,51 34.064,51 L29.312,51 C28.7839974,51 28.3400018,50.8320017 27.98,50.496 C27.6199982,50.1599983 27.44,49.7280026 27.44,49.2 L27.44,39.732 C27.44,38.8919958 27.4519999,38.1240035 27.476,37.428 C27.5000001,36.7319965 27.512,36.1680022 27.512,35.736 L27.512,35.016 C27.512,32.807989 27.0800043,30.9720073 26.216,29.508 C25.3519957,28.0439927 24.1280079,26.8800043 22.544,26.016 C21.3919942,25.3919969 20.1920062,25.0200006 18.944,24.9 C17.6959938,24.7799994 16.4960058,24.8879983 15.344,25.224 C14.1919942,25.5600017 13.1240049,26.0999963 12.14,26.844 C11.1559951,27.5880037 10.3520031,28.5119945 9.728,29.616 C8.7679952,31.2480082 8.41999868,32.9879908 8.684,34.836 C8.94800132,36.6840092 9.60799472,38.3399927 10.664,39.804 C11.7200053,41.2680073 13.0999915,42.3719963 14.804,43.116 C16.5080085,43.8600037 18.3439902,43.9440029 20.312,43.368 C20.7920024,43.2239993 21.1999983,43.2599989 21.536,43.476 C21.8720017,43.6920011 22.1599988,43.9919981 22.4,44.376 L24.344,49.704 C24.4880007,50.0880019 24.3200024,50.375999 23.84,50.568 C21.247987,51.4320043 18.7400121,51.7440012 16.316,51.504 C13.8919879,51.2639988 11.68401,50.6160053 9.692,49.56 C7.69999004,48.5039947 5.97200732,47.1120086 4.508,45.384 C3.04399268,43.6559914 1.96400348,41.7360106 1.268,39.624 C0.57199652,37.5119894 0.29599928,35.2800118 0.44,32.928 C0.58400072,30.5759882 1.255994,28.2240118 2.456,25.872 C3.51200528,23.8559899 4.95199088,22.1280072 6.776,20.688 C8.60000912,19.2479928 10.5919892,18.2040032 12.752,17.556 C14.9120108,16.9079968 17.1199887,16.7039988 19.376,16.944 C21.6320113,17.1840012 23.7199904,17.9759933 25.64,19.32 C25.9760017,19.7040019 26.2999984,19.8480005 26.612,19.752 C26.9240016,19.6559995 27.08,19.3440026 27.08,18.816 C27.08,18.3359976 27.2599982,17.9040019 27.62,17.52 C27.9800018,17.1359981 28.3999976,16.944 28.88,16.944 L34.064,16.944 C34.5920026,16.944 35.0359982,17.1359981 35.396,17.52 C35.7560018,17.9040019 35.936,18.3359976 35.936,18.816 L35.936,49.2 Z"
                              id="a" fill="#FFF"></path>
                        <path d="M62.432,47.184 C62.5280005,47.4240012 62.5280005,47.6159993 62.432,47.76 C62.3359995,47.9040007 62.1680012,48.0479993 61.928,48.192 C61.8319995,48.2400002 61.5080028,48.4439982 60.956,48.804 C60.4039972,49.1640018 59.6600047,49.5359981 58.724,49.92 C57.7879953,50.3040019 56.6720065,50.6519984 55.376,50.964 C54.0799935,51.2760016 52.6160082,51.4080002 50.984,51.36 C48.1519858,51.2639995 45.9920074,50.4960072 44.504,49.056 C43.0159926,47.6159928 42.272,45.4080149 42.272,42.432 L42.272,26.088 C42.272,25.5599974 42.0080026,25.296 41.48,25.296 L37.376,25.296 C36.9919981,25.296 36.6320017,25.1280017 36.296,24.792 C35.9599983,24.4559983 35.792,24.0240026 35.792,23.496 L35.792,18.96 C35.792,18.4319974 35.9599983,18.0000017 36.296,17.664 C36.6320017,17.3279983 36.9919981,17.16 37.376,17.16 L41.48,17.16 C42.0080026,17.16 42.272,16.8960026 42.272,16.368 L42.272,6.432 C42.272,5.9519976 42.4399983,5.54400168 42.776,5.208 C43.1120017,4.87199832 43.4959978,4.704 43.928,4.704 L48.752,4.704 C49.3280029,4.704 49.7719984,4.87199832 50.084,5.208 C50.3960016,5.54400168 50.552,5.9519976 50.552,6.432 L50.552,16.368 C50.552,16.8960026 50.8399971,17.16 51.416,17.16 L59.408,17.16 C59.8880024,17.16 60.2959983,17.3279983 60.632,17.664 C60.9680017,18.0000017 61.136,18.4319974 61.136,18.96 L61.136,23.496 C61.136,24.0240026 60.9680017,24.4559983 60.632,24.792 C60.2959983,25.1280017 59.8880024,25.296 59.408,25.296 L51.488,25.296 C51.295999,25.296 51.104001,25.3679993 50.912,25.512 C50.719999,25.6560007 50.624,25.8479988 50.624,26.088 L50.696,40.92 C50.696,42.3600072 51.0319966,43.3079977 51.704,43.764 C52.3760034,44.2200023 53.1439957,44.3280012 54.008,44.088 C55.016005,43.8479988 55.915996,43.5360019 56.708,43.152 C57.500004,42.7679981 58.1359976,42.4560012 58.616,42.216 C59.0960024,41.9759988 59.5519978,41.8799998 59.984,41.928 C60.4160022,41.9760002 60.6799995,42.1919981 60.776,42.576 L62.432,47.184 Z"
                              id="t" fill="#FFF"></path>
                        <path d="M92.4,2.256 C92.6880014,2.40000072 92.7600007,2.68799784 92.616,3.12 L90.168,7.368 C89.9279988,7.75200192 89.604002,8.01599928 89.196,8.16 C88.787998,8.30400072 88.3920019,8.30400072 88.008,8.16 C87.3839969,7.9199988 86.676004,7.70400096 85.884,7.512 C85.091996,7.31999904 84.3360036,7.224 83.616,7.224 C81.9359916,7.224 80.496006,7.47599748 79.296,7.98 C78.095994,8.48400252 77.1240037,9.17999556 76.38,10.068 C75.6359963,10.9560044 75.0960017,12.0119939 74.76,13.236 C74.4239983,14.4600061 74.2799998,15.767993 74.328,17.16 L82.68,17.16 C83.2080026,17.16 83.6399983,17.3159984 83.976,17.628 C84.3120017,17.9400016 84.48,18.3599974 84.48,18.888 L84.48,22.992 C84.48,23.4720024 84.3120017,23.8799983 83.976,24.216 C83.6399983,24.5520017 83.2080026,24.72 82.68,24.72 L74.328,24.72 L74.328,49.272 C74.328,49.8000026 74.1600017,50.2199984 73.824,50.532 C73.4879983,50.8440016 73.0800024,51 72.6,51 L67.704,51 C67.1759974,51 66.7440017,50.8440016 66.408,50.532 C66.0719983,50.2199984 65.904,49.8000026 65.904,49.272 L65.904,24.72 L62.88,24.72 C62.3999976,24.72 61.9920017,24.5520017 61.656,24.216 C61.3199983,23.8799983 61.152,23.4720024 61.152,22.992 L61.152,18.888 C61.152,18.3599974 61.3199983,17.9400016 61.656,17.628 C61.9920017,17.3159984 62.3999976,17.16 62.88,17.16 L65.904,17.16 L65.904,16.008 C65.9520002,14.0879904 66.3239965,12.228009 67.02,10.428 C67.7160035,8.627991 68.7359933,7.0080072 70.08,5.568 C71.4240067,4.1279928 73.0559904,2.94000468 74.976,2.004 C76.8960096,1.06799532 79.1279873,0.4800012 81.672,0.24 C83.4960091,0.04799904 85.307991,0.09599856 87.108,0.384 C88.908009,0.67200144 90.6719914,1.2959952 92.4,2.256 Z"
                              id="f" fill="#FFF"></path>
                        <path d="M114.117,54.0866327 C114.069,56.1506431 113.697004,58.1306233 113.001,60.0266327 C112.304997,61.9226422 111.273007,63.6026254 109.905,65.0666327 C108.536994,66.5306401 106.821011,67.7066283 104.757,68.5946327 C102.69299,69.4826372 100.269014,69.9266327 97.4850004,69.9266327 C93.8849824,69.9266327 90.8490127,69.1226408 88.3770004,67.5146327 C85.904988,65.9066247 84.0210069,63.8546452 82.7250004,61.3586327 C82.6289999,61.2626323 82.5930003,61.1306336 82.6170004,60.9626327 C82.6410005,60.7946319 82.7729992,60.6626332 83.0130004,60.5666327 L83.6610004,60.3506327 C83.9970021,60.2546323 84.5249968,60.0866339 85.2450004,59.8466327 C85.965004,59.6066315 87.0209934,59.2226354 88.4130004,58.6946327 C88.8930028,58.550632 89.2769989,58.6466311 89.5650004,58.9826327 C90.3330042,59.8466371 91.3409941,60.6626289 92.5890004,61.4306327 C93.8370066,62.1986366 95.5649893,62.5826327 97.7730004,62.5826327 C99.4530088,62.5826327 100.868995,62.2946356 102.021,61.7186327 C103.173006,61.1426299 104.096997,60.3986373 104.793,59.4866327 C105.489004,58.5746282 105.980999,57.5546384 106.269,56.4266327 C106.557002,55.2986271 106.701,54.1826383 106.701,53.0786327 C106.701,49.9106169 106.725,47.0306457 106.773,44.4386327 C106.773,43.3346272 106.785,42.254638 106.809,41.1986327 C106.833,40.1426275 106.857,39.1826371 106.881,38.3186327 C106.905,37.4546284 106.917,36.7586354 106.917,36.2306327 L106.917,35.2946327 C106.917,32.8466205 106.257007,30.7706413 104.937,29.0666327 C103.616994,27.3626242 102.02101,26.1986359 100.149,25.5746327 C98.276991,24.9506296 96.3090107,24.9626295 94.2450004,25.6106327 C92.1809901,26.258636 90.4050078,27.7106215 88.9170004,29.9666327 C87.9089953,31.7426416 87.5129993,33.5546235 87.7290004,35.4026327 C87.9450015,37.250642 88.592995,38.8826257 89.6730004,40.2986327 C90.7530058,41.7146398 92.1689916,42.7466295 93.9210004,43.3946327 C95.6730091,44.042636 97.5569903,44.0786356 99.5730004,43.5026327 C99.9570023,43.4066323 100.352998,43.4666317 100.761,43.6826327 C101.169002,43.8986338 101.445,44.1986308 101.589,44.5826327 L103.461,49.7666327 C103.701002,50.3426356 103.461004,50.7506315 102.741,50.9906327 C100.292988,51.6626361 97.9170119,51.8546342 95.6130004,51.5666327 C93.3089889,51.2786313 91.19701,50.606638 89.2770004,49.5506327 C87.3569908,48.4946275 85.6770076,47.1266411 84.2370004,45.4466327 C82.7969932,43.7666243 81.7050041,41.8946431 80.9610004,39.8306327 C80.2169967,37.7666224 79.9049998,35.5706444 80.0250004,33.2426327 C80.145001,30.9146211 80.8049944,28.5506447 82.0050004,26.1506327 C83.0130054,24.0866224 84.4289913,22.3226401 86.2530004,20.8586327 C88.0770095,19.3946254 90.0569897,18.338636 92.1930004,17.6906327 C94.3290111,17.0426295 96.5129892,16.8506314 98.7450004,17.1146327 C100.977012,17.3786341 103.028991,18.2306255 104.901,19.6706327 C105.141002,20.0066344 105.440999,20.1386331 105.801,20.0666327 C106.161002,19.9946324 106.341,19.6946354 106.341,19.1666327 C106.341,18.6866303 106.520999,18.2546347 106.881,17.8706327 C107.241002,17.4866308 107.684998,17.2946327 108.213,17.2946327 L113.037,17.2946327 C113.517003,17.2946327 113.817,17.4866308 113.937,17.8706327 C114.057001,18.2546347 114.117,18.6866303 114.117,19.1666327 L114.117,54.0866327 Z"
                              id="g" fill="#FFF"></path>
                        <path d="M16,17 L31.5,17 L32.5,23.5 L23,23 C19.6666667,21 18,20.0833333 18,20.25 C18,20.4166667 17.3333333,19.3333333 16,17 Z"
                              id="Path-2" fill="#FFF"></path>
                    </g>
                </g>
                <rect id="Rectangle" fill="#FFF" x="36" y="17" width="25"
                      height="9"></rect>
                <polygon id="Rectangle" fill="#FFF"
                         transform="translate(31.000000, 21.500000) scale(-1, 1) translate(-31.000000, -21.500000) "
                         points="26 17 36 17 36 21 36 26 26 26"></polygon>
            </g>
        </g>
    </g>
</svg>