<svg width="200" height="200" viewBox="0 0 200 200" fill="none" xmlns="http://www.w3.org/2000/svg">
<rect width="1600" height="1200" transform="translate(-400 -600)" fill="#EAEAEA"/>
<rect x="-400" y="-600" width="1600" height="1200" fill="white"/>
<mask id="mask0" mask-type="alpha" maskUnits="userSpaceOnUse" x="-400" y="-600" width="1600" height="1200">
<rect x="-400" y="-600" width="1600" height="1200" fill="white"/>
</mask>
<g mask="url(#mask0)">
<rect x="-400" y="-600" width="1600" height="1200" fill="#ECECF4"/>
<rect width="200" height="200" fill="#FFC641"/>
<rect x="-100" y="100" width="200" height="200" rx="100" fill="white"/>
<rect width="200" height="200" rx="100" fill="#FE5E33"/>
<path fill-rule="evenodd" clip-rule="evenodd" d="M200 100C200 155.228 155.228 200 100 200C100 144.772 144.772 100 200 100ZM0 300C0 244.772 44.7715 200 100 200C100 255.228 55.2285 300 0 300ZM100 200C44.7715 200 0 155.228 0 100C55.2285 100 100 144.772 100 200ZM100 200C155.228 200 200 244.772 200 300C144.772 300 100 255.228 100 200Z" fill="#51C5D2"/>
</g>
</svg>
