<svg width="200" height="200" viewBox="0 0 200 200" fill="none" xmlns="http://www.w3.org/2000/svg">
<rect width="1600" height="1200" transform="translate(-330)" fill="white"/>
<rect x="-330" width="1600" height="1200" fill="#FBF4E2"/>
<mask id="mask0" mask-type="alpha" maskUnits="userSpaceOnUse" x="-330" y="0" width="1600" height="1200">
<rect x="-330" width="1600" height="1200" fill="#FBF4E2"/>
</mask>
<g mask="url(#mask0)">
<path fill-rule="evenodd" clip-rule="evenodd" d="M300.937 113.953C314.377 100.545 314.377 78.8074 300.937 65.4C287.497 51.9926 265.706 51.9926 252.266 65.4C238.826 78.8074 238.826 100.545 252.266 113.953C260.331 121.997 260.331 135.04 252.266 143.083C244.202 151.128 231.127 151.128 223.064 143.083C193.495 113.588 193.495 65.7649 223.064 36.2685C252.631 6.77225 300.571 6.77223 330.14 36.2685C359.709 65.7649 359.709 113.588 330.14 143.083C322.076 151.128 309.002 151.128 300.937 143.083C292.873 135.04 292.873 121.997 300.937 113.953Z" fill="#463C74"/>
<path fill-rule="evenodd" clip-rule="evenodd" d="M103.961 124.309C84.9535 124.309 69.5449 108.896 69.5449 89.883C69.5449 70.8702 84.9535 55.4572 103.961 55.4572C122.968 55.4572 138.376 70.8702 138.376 89.883C138.376 108.896 122.968 124.309 103.961 124.309ZM28.246 89.883C28.246 131.711 62.1441 165.62 103.961 165.62C145.777 165.62 179.675 131.711 179.675 89.883C179.675 48.0549 145.777 14.1463 103.961 14.1463C62.1441 14.1463 28.246 48.0547 28.246 89.883Z" fill="#FFC735"/>
<path d="M-110.888 127.5C-99.9955 93.873 -68.3365 69.5491 -30.9794 69.5491H48.8467C60.248 69.5491 69.4913 78.7632 69.4913 90.1295C69.4913 101.496 60.248 110.71 48.8467 110.71H-30.9794C-50.4936 110.71 -66.9477 123.77 -72.0268 141.6C-53.0431 155.313 -40.6927 177.613 -40.6927 202.794C-40.6927 214.163 -49.9262 223.38 -61.3154 223.38C-72.7046 223.38 -81.938 214.163 -81.938 202.794C-81.938 183.844 -97.3267 168.483 -116.309 168.483H-253.794C-272.776 168.483 -288.165 183.844 -288.165 202.794C-288.165 214.163 -297.398 223.38 -308.787 223.38C-320.177 223.38 -329.41 214.163 -329.41 202.794C-329.41 161.104 -295.556 127.309 -253.794 127.309H-116.309C-114.486 127.309 -112.679 127.374 -110.888 127.5H-110.888Z" fill="#E5E0D5"/>
<path fill-rule="evenodd" clip-rule="evenodd" d="M-40.6391 203.046C-40.6391 184.033 -25.2304 168.62 -6.2233 168.62C12.7838 168.62 28.1925 184.033 28.1925 203.046C28.1925 222.059 12.7838 237.472 -6.2233 237.472C-17.6273 237.472 -26.8728 246.72 -26.8728 258.127C-26.8728 269.535 -17.6273 278.783 -6.2233 278.783C35.5932 278.783 69.4914 244.875 69.4914 203.046C69.4914 161.217 35.5932 127.309 -6.2233 127.309C-48.0398 127.309 -81.938 161.217 -81.938 203.046C-81.938 214.453 -72.6925 223.702 -61.2885 223.702C-49.8845 223.702 -40.6391 214.453 -40.6391 203.046Z" fill="#463C74"/>
<path fill-rule="evenodd" clip-rule="evenodd" d="M69.4913 90.1778C69.4913 78.7849 60.2579 69.5491 48.8686 69.5491C37.4794 69.5491 28.246 78.7849 28.246 90.1778C28.246 101.571 37.4794 110.806 48.8686 110.806C60.2579 110.806 69.4913 101.571 69.4913 90.1778Z" fill="#FD6234"/>
<path fill-rule="evenodd" clip-rule="evenodd" d="M124.878 90.1778C124.878 78.7848 115.644 69.5491 104.255 69.5491C92.866 69.5491 83.6326 78.7848 83.6326 90.1778C83.6326 101.571 92.866 110.806 104.255 110.806C115.644 110.806 124.878 101.571 124.878 90.1778Z" fill="#FD6234"/>
<path fill-rule="evenodd" clip-rule="evenodd" d="M133.087 195.699C133.087 272.487 70.8567 334.735 -5.90854 334.735C-17.3089 334.735 -26.5514 343.98 -26.5514 355.383C-26.5514 366.787 -17.3089 376.032 -5.90854 376.032C93.6575 376.032 174.372 295.294 174.372 195.699C174.372 184.295 165.13 175.05 153.73 175.05C142.329 175.05 133.087 184.295 133.087 195.699Z" fill="#B4D51E"/>
<path fill-rule="evenodd" clip-rule="evenodd" d="M174.372 195.679C174.372 184.286 165.139 175.05 153.75 175.05C142.36 175.05 133.127 184.286 133.127 195.679C133.127 207.071 142.36 216.307 153.75 216.307C165.139 216.307 174.372 207.071 174.372 195.679Z" fill="#FD6234"/>
</g>
</svg>
